<svg width="1394" height="1012" xmlns="http://www.w3.org/2000/svg">
    <g>
        <g>
            <path d="M1544.581-629.584l34.323-440.367-12.534-.977-34.323 440.367q-46.449 483.595 87.746 950.461l-17.16 4.6 49.79 68.566-20.487-76.421q-124.815-465.604-87.355-946.229z"
                  fill="#cadef0"/>
            <path d="M298.777-668.56L-94.701-869.267l-5.713 11.2 393.478 200.706q667.889 352.355 1422.558 377.77l-.843 17.746 80.47-26.553-79.03-3.752Q966.98-327.72 298.776-668.56zm1539.65-43.936l-259.523-357.455-10.184 7.394 259.523 357.455 60.07 82.736-14.385 10.444 71.069 46.21-46.5-64.048-60.07-82.736z"
                  fill="#cadef0"/>
            <path d="M172.084-517.176L-94.7-869.266l-10.036 7.603L162.05-509.572Q644.07 143.876 1354.593 536.796l-8.803 15.447 83.812 12.81-68.774-39.196Q659.578 126.194 172.084-517.176z"
                  fill="#cadef0"/>
            <path d="M1407.946-662.613l170.958-407.338-11.617-4.875-170.958 407.337Q1102.824 4.995 571.392 510.674l-12.076-13.056-37.496 76.065 58.126-53.76q542.139-501.418 828-1182.536zM91.998 403.34l156.965 422.706 11.84-4.397-156.965-422.706Q-36.627-3.182-63.161-428.383l17.79-.763-33.801-77.864 3.394 79.168Q-57.394 1.028 91.998 403.34zm1414.069 1017.513l-260.577 356.812 10.202 7.451 260.577-356.813q426.67-566.913 563.323-1263.122l17.425 3.681-13.402-83.83-16.383 77.537q-145.645 689.303-561.165 1258.284z"
                  fill="#cadef0"/>
            <path d="M1246.101-779.253l332.803-290.698-8.328-9.534-332.803 290.698Q742.208-369.088 127.142-160.794l-5.46-16.97-66.155 53.308 75.491-24.287q622.533-200.276 1115.083-630.51zm207.1 2166.843l-207.711 390.075 11.193 5.96 207.71-390.075q65.265-113.958 114.587-235.662l16.323 7.208 4.13-84.916-32.053 72.586q-52.775 119.509-114.179 234.824z"
                  fill="#cadef0"/>
            <path d="M894.118 1509.635l351.372 268.03 7.69-10.082-351.371-268.03Q305.055 1031.247-67.576 370.55l15.66-8.55-64.817-55.014 38.028 69.642q365.846 669.996 972.823 1133.006zm540.134-2161.898l144.652-417.688-12.026-4.165-144.652 417.689q-104.428 280.064-258.998 535.838l-15.077-9.603-16.866 83.446 42.678-67.006q161.736-253.935 260.289-538.51zM585.714-28.325l343.741 298.463 8.372-9.643-343.74-298.463q-237.446-215.817-426.3-475.298l14.713-10.206-70.537-47.866 45.331 65.35q184.317 265.712 428.42 477.663z"
                  fill="#cadef0"/>
            <path d="M1753.656-452.902l405.214 181.768 5.336-11.896-405.214-181.768q-385.21-181.895-706.58-461.496l12.139-13.415-80.27-30.652 59.383 53.734q318.298 288.021 709.992 463.725z"
                  fill="#c9ddf0"/>
            <path d="M1043.898-916.415l-331.36-299.84-8.852 9.782 331.36 299.84q315.012 296.244 712.922 465.638l-7.448 16.605 86.206 4.265-73.358-32.907q-391.406-175.574-709.47-463.383zm56.396 2275.406l145.196 418.674 12.535-4.347-145.195-418.674q-99.255-308.55-132.964-630.852l18.19-1.487-37.98-77.717 6.566 80.285q26.617 325.48 133.652 634.118z"
                  fill="#c9ddf0"/>
            <path d="M897 1503.685l348.49 273.98 8.249-10.492-348.49-273.98q-186.655-154.776-350.082-333.882l13.839-11.982-76.76-40.3 52.831 61.018Q704.955 1352.7 897 1503.685z"
                  fill="#c9ddf0"/>
            <path d="M-75.711-426.275l-18.99-442.992-13.382.574 18.99 442.992Q-78.91 5.389 78.896 406.531l-17.192 6.384 57.878 64.708-28.13-75.754Q-57.394 1.028-75.71-426.275z"
                  fill="#c8ddf0"/>
            <path d="M158.072-504.867l-252.773-364.4-11.042 7.66 252.773 364.4Q326.084-226.32 575.874-19.072L563.83-5.202l81.938 29.021-61.085-53.038Q341.611-240.276 158.072-504.867z"
                  fill="#c8ddef"/>
            <path d="M724.33-761.891l-11.792-454.364-17.313.449 11.792 454.364q.738 300.251 85.402 588.216l-20.139 5.41 59.704 75.118-22.84-85.021q-77.102-287.016-84.814-584.172zM91.945 228.329L-291.379-12.853l-9.36 14.877L82.585 243.206q556.061 361.555 1213.148 451.73l-3.166 20.766 93.275-24.808-87.46-13.335Q648.436 578.464 91.945 228.33z"
                  fill="#c1d9ed"/>
            <path d="M42.749-319.655L-291.38-12.853l12.186 13.27L54.934-306.384q254.962-223.97 429.678-514.874L502.6-809.91l14.377-96.403-47.6 75.44Q290.151-546.827 42.748-319.655zm1254.692 997.071l449.583 68.546 2.736-17.943-449.583-68.546q-641.752-107.844-1197.76-446l11.368-18.068-96.722-14.19 75.688 47.62q555.685 349.629 1204.69 448.58z"
                  fill="#c0d8ed"/>
            <path d="M1926.404 326.883l-179.38 419.079 17.297 7.403 179.38-419.079q39.842-85.199 70.499-174.118l20.302 7.758-5.573-99.012-32.304 84.538q-33.4 87.408-70.221 173.43z"
                  fill="#bfd7ec"/>
            <path d="M468.558-829.578l243.98-386.677-16.035-10.118-243.98 386.678q-182.84 275.793-421.47 505.038l-14.757-16.07-39.252 91.403 66.833-61.367q246.275-226.136 424.681-508.887zm1527.975 983.271l162.337-424.827-17.726-6.774-162.337 424.828q-36.05 85.652-69.746 172.259l-20.066-8.59 1.797 99.492 35.713-83.436q36.72-85.785 70.028-172.952z"
                  fill="#bed7ec"/>
            <path d="M1724.759-133.94l434.11-137.194-5.81-18.387-434.111 137.195Q957.09 77.625 164.032 11.628l2.109-21.902-94.782 32.35 90.825 8.746Q960.257 107.67 1724.759-133.94z"
                  fill="#bed7ec"/>
            <path d="M808.224-181.144l121.231 451.282 18.83-5.058-121.231-451.283q-68.57-282.39-83.142-572.649l22.118-.574-43.984-90.471 2.376 91.551q7.62 293.61 83.802 577.202z"
                  fill="#bdd7ec"/>
            <path d="M1818.54 32.546l340.33-303.68-13.199-14.792-340.328 303.68Q1306.968 449.175 683.647 663.21l-6.927-21.207-74.457 68.644 87.539-28.593q632.303-206.53 1128.739-649.508zm-1655.476-1.64l-454.443-43.759-1.902 19.758 454.443 43.76q802.32 87.613 1568.734-165.412l6.727 21.286 75.139-67.975-87.847 27.763Q960.257 107.67 163.065 30.907z"
                  fill="#bdd6ec"/>
            <path d="M692.498 681.173L248.963 826.046l6.742 20.64L699.24 701.811Q1338.182 503.51 1830.88 50.635l15.545 17.421 40.828-96.823-70.829 63.202q-494.32 441.088-1123.926 646.738z"
                  fill="#b9d4eb"/>
            <path d="M1451.831 390.942l295.193 355.02 17.461-14.519-295.193-355.02q-417.198-517.256-608.38-1153.68l22.968-6.527-71.153-79.95 26.342 92.686q183.53 645.765 612.762 1161.99z"
                  fill="#b8d3ea"/>
            <path d="M839.266-770.355l-126.728-445.9-22.338 6.348 126.728 445.9Q992.65-109.493 1433.514 405.235l-18.566 15.438 98.488 44.36-62.066-74.645Q1022.6-125.283 839.266-770.355z"
                  fill="#b7d3ea"/>
            <path d="M154.502 121.11l-445.88-133.963-7.56 25.162 445.88 133.963q150.486 50.61 307.81 71.538l-4.214 25.335 108.31-34.654-99.785-16.598q-154.52-25.703-304.56-70.782z"
                  fill="#b1cfe8"/>
            <path d="M456.583 191.48l472.872 78.658 4.64-27.897-472.871-78.658Q312.11 133.541 165.047 94.75l7.667-25.52L57.625 92.004l99.285 29.83q147.633 44.356 299.673 69.646z"
                  fill="#aecde7"/>
            <path d="M1747.995-45.848l410.875-225.286-13.949-25.44-410.874 225.287Q1558.712 18.068 1374.504 87.33l-8.73-25.537-80.819 86.812 98.934-33.822q188.963-64.6 364.106-160.632z"
                  fill="#accce6"/>
            <path d="M1385.838 114.117L929.455 270.138l9.95 29.107 456.383-156.02q191.908-59.324 365.19-161.111l13.361 24.368 65.334-102.598-93.484 51.258q-173.337 95.042-360.351 158.975zM-46.797 366.869L-291.379-12.853l-25.906 16.687 244.582 379.721 47.25 73.358-23.383 15.062 96.54 41.61-47.25-73.359-47.25-73.357z"
                  fill="#a9cbe5"/>
            <path d="M444.362 387.594L248.963 826.046l29.494 13.144 195.398-438.453Q725.99-142.098 732.365-740.737l28.463.746-57.9-109.909-2.841 108.316q-15.48 590.092-255.725 1129.178z"
                  fill="#a6c9e4"/>
            <path d="M.454 440.226l248.51 385.82 27.37-17.63-248.51-385.82-47.25-73.357L4.61 333.758l-98.657-40.247 47.25 73.358 47.25 73.357z"
                  fill="#a6c9e4"/>
            <path d="M700.044-739.97l12.494-476.285-33.744-.886-12.493 476.286Q641.797-161.209 414.187 372.378l-26.59-11.85 12.658 126.035 44.764-100.445Q684.607-151.492 700.044-739.97z"
                  fill="#a4c7e4"/>
            <path d="M1276.992 828.17l470.032-82.208-6.112-34.95-470.032 82.207q-267.218 39.69-537.152 28.988l1.949-29.782-115.838 57.887 111.572 7.3q274.532 17.964 545.581-29.442z"
                  fill="#a1c6e3"/>
            <path d="M731.523 857.62l-482.56-31.574-2.323 35.512 482.56 31.574q279.03 25.216 553.813-29.887l5.15 29.444 98.969-83.783-110.25 19.283q-270.939 47.387-545.359 29.431z"
                  fill="#a1c5e2"/>
            <path d="M1372.225 527.83l374.8 218.132 20.463-35.162-374.8-218.132-59.03-34.356 16.077-27.622-95.57 28.429 59.03 34.355 59.03 34.355z"
                  fill="#97c0df"/>
            <path d="M1313.195 493.474l-383.74-223.336-21.146 36.333 383.74 223.336 59.03 34.355-16.342 28.079 96.517-30.057-59.03-34.355-59.03-34.355z"
                  fill="#95bfdf"/>
            <path d="M604.599 535.52l324.856-265.382-51.412-62.934-324.856 265.382-33.901 27.695-28.577-34.981 46.088 125.609 33.9-27.695L604.6 535.52z"
                  fill="#4e95c8"/>
            <path d="M570.698 563.214L248.963 826.046l59.565 72.913 321.734-262.832 33.9-27.694 30.76 37.652-56.423-138.26-33.9 27.695-33.901 27.694z"
                  fill="#3787c0"/>
        </g>
        <g transform="translate(-3563.598 -2699.593) scale(6.27667)">
            <circle r="59.857" cx="715.834" cy="473.138" fill="#fcfefb" stroke="#6cbc7a" stroke-width="3.215"/>
            <circle r="59.214" cx="607.418" cy="561.705" fill="#fcfefc" stroke="#63b773" stroke-width="3.522"/>
            <circle r="58.388" cx="681.274" cy="236.325" fill="#fcfefc" stroke="#98d399" stroke-width="1.704"/>
            <circle r="58.209" cx="846.089" cy="548.946" fill="#fdfefc" stroke="#8dcd91" stroke-width="2.084"/>
            <circle r="58.059" cx="521.33" cy="428.052" fill="#fdfefc" stroke="#98d399" stroke-width="1.705"/>
            <circle r="57.997" cx="911.704" cy="386.902" fill="#fdfefc" stroke="#9cd59b" stroke-width="1.569"/>
            <circle r="57.768" cx="523.929" cy="937.44" fill="#fdfefc" stroke="#addea7"/>
            <circle r="57.768" cx="552.665" cy="291.608" fill="#fdfefc" stroke="#acdda6" stroke-width="1.034"/>
            <circle r="57.767" cx="1164.055" cy="599.948" fill="#fdfefc" stroke="#addea7"/>
            <circle r="57.767" cx="254.219" cy="634.995" fill="#fdfefc" stroke="#addea7"/>
            <circle r="57.767" cx="819.304" cy="259.635" fill="#fdfefc" stroke="#addea7" stroke-width="1.006"/>
            <circle r="57.767" cx="766.184" cy="713.317" fill="#fdfefc" stroke="#acdea6" stroke-width="1.03"/>
        </g>
        <g>
            <path d="M710.608 116.661l-26.395 7.082.692 2.58 26.395-7.082Q816.014 92.655 888.977 12.944l2.31 2.173 4.875-13.712-9.13 9.71Q813.812 88.97 710.607 116.66zm153.285 189.507l-24.733 23.929 1.857 1.92 24.733-23.93q101.704-96.26 149.18-228.2l2.972 1.106-.827-14.53-4.65 12.492q-48.569 130.499-148.532 227.213z"
                  fill="#c1d8ed"/>
            <path d="M873.375 326.289l-34.215 3.808.296 2.662 34.216-3.808q152.195-15.38 283.885-93.596l1.595 2.747 8.6-11.76-11.54 6.696q-131.679 76.426-282.837 93.25zm88.387 91.536l24.742-18.824-1.623-2.133-24.741 18.824q-85.391 63.123-190.98 75.5l-.327-3.161-12.671 7.197 13.273-1.37q106.914-11.046 192.327-76.033zM711.561 123.949l-27.348-.206-.02 2.683 27.348.206q149.92 2.665 286.061-60.115l1.302 2.9 9.778-10.813-12.178 5.465q-135.934 60.999-284.943 59.88zm311.123 58.062l30.369-1.351-.12-2.696-30.37 1.351q-160.507 5.588-311.736-48.618l1.104-2.99-14.585.887 12.546 4.634q151.503 55.962 312.792 48.783zM733.458 471.396l9.29 25.218 2.541-.936-9.29-25.218q-55.388-154.86-50.203-319.24l3.19.132-5.347-13.62-.549 13.378q-6.774 165.164 50.368 320.286z"
                  fill="#c0d8ed"/>
            <path d="M709.915 133.237l-25.702-9.494-.94 2.546 25.702 9.494q151.756 57.71 313.804 48.94l.142 3.195 13.124-6.501-13.387.596q-161.263 7.177-312.743-48.776zm59.577 360.614l-26.744 2.763.279 2.7 26.744-2.762q108.192-9.711 193.59-76.531l1.936 2.544 7.085-12.82-10.665 8.115q-85.368 64.952-192.225 75.991z"
                  fill="#c0d8ed"/>
            <path d="M1152.523 218.35l27.01 1.153.116-2.72-27.01-1.152q-226.901-11.278-441.669-85.337l1.065-3.02-14.619 1.126 12.649 4.46q214.845 75.774 442.458 85.49z"
                  fill="#c0d8ed"/>
            <path d="M813.634 215.67l-30.433-4.882-.434 2.709 30.432 4.882q109.766 19.109 212.601-23.81l1.199 2.982 10.257-10.543-12.479 5.014q-102.298 41.11-211.143 23.648zm351.896 27l14.003-23.167-2.348-1.42-14.004 23.168q-56.414 90.513-150.263 140.932l-1.482-2.852-9.186 11.488 11.933-6.2q95.56-49.654 151.347-141.948z"
                  fill="#c0d8ed"/>
            <path d="M1024.762 192.028l28.29-11.368-1.026-2.555-28.29 11.368q-101.745 39.293-209.65 23.48l.51-3.18-14.24 3.767 13.294 2.133q108.829 17.459 211.112-23.645z"
                  fill="#c0d8ed"/>
            <path d="M904.487 279.084l52.254-8.473-.442-2.726-52.254 8.473Q789.172 293.435 678.12 257.48l1.032-3.056-14.685 1.358 12.769 4.314q111.661 37.73 227.252 18.987zm247.949-60.056l27.097.475.049-2.762-27.097-.475q-105.71-3.307-196.012-57.976l1.709-2.735-14.603-2.062 11.431 7.14q90.49 56.521 197.426 58.395z"
                  fill="#bfd8ed"/>
            <path d="M1021.574 80.883l.696-28.376-2.77-.068-.696 28.376q-6.344 194.653 55.729 379.263l-3.07 1.004 9.9 10.957-4.196-12.823q-60.343-184.388-55.593-378.333z"
                  fill="#bfd8ed"/>
            <path d="M1077.161 459.2l8.656 26.449 2.644-.865-8.656-26.45q-58.607-184.148-55.45-377.366l3.235.08-5.685-13.653-.331 13.505q-4.75 193.928 55.587 378.3zM683.085 151.253l1.128-27.51-2.793-.114-1.129 27.51q-8.356 165.822 50.495 321.09l-3.045 1.121 10.346 10.61-4.678-12.698q-57.093-154.988-50.324-320.01z"
                  fill="#bfd8ec"/>
            <path d="M674.12 236.453l-22.324 15.049 1.569 2.327 22.324-15.049q133.007-87.794 217.515-222.91l2.74 1.75 2.191-14.678-7.296 11.417q-85.324 133.523-216.718 222.094z"
                  fill="#bfd7ec"/>
            <path d="M890.81 14.405L905.383-8.4l-2.394-1.53-14.572 22.804q-86.107 131.88-215.839 221.194l-1.828-2.712-7.864 12.67 11.28-7.603Q805.515 147.882 890.81 14.405z"
                  fill="#bfd7ec"/>
            <path d="M902.795 18.55l2.588-26.95-2.834-.271-2.588 26.948q-11.783 107.505 32.777 204.915l-2.996 1.32 11.09 9.99-5.49-12.458q-42.768-97.071-32.547-203.495z"
                  fill="#bed7ec"/>
            <path d="M935.338 222.034l21.403 48.577 2.611-1.15-21.403-48.577q-40.972-96.722-32.315-202.05l3.263.313-4.801-14.15-1.303 13.564q-10.219 106.412 32.545 203.473zm142.259 116.022l5.216-29.01-2.811-.506-5.216 29.01q-20.372 105.029-90.776 185.686l-2.441-2.19-4.535 14.241 9.101-10.144q72.317-80.604 91.462-187.087zm78.363-104.872l23.573-13.681-1.435-2.472-23.573 13.681q-131.382 74.474-281.176 92.703l-.363-3.26-12.87 7.61 13.55-1.509q150.867-16.792 282.294-93.072z"
                  fill="#bed7ec"/>
            <path d="M1152.448 215.957l27.085 3.546.376-2.872-27.085-3.546q-36.966-5.792-70.932-21.456l1.459-2.963-15.024-.486 12.285 6.048q34.102 16.79 71.836 21.729zM905.8 18.787l-.417-27.186-2.92.044.417 27.187q1.238 182.612 69.402 351.938l-3.087 1.212 10.824 10.501-5.018-12.78Q908.59 200.552 905.8 18.786zm80.405 506.278l-18.003 20.066 2.175 1.952 18.003-20.067q74.168-80.488 92.074-188.34l3.265.587-3.71-14.62-2.43 13.516q-19.127 106.38-91.374 186.906z"
                  fill="#bed7ec"/>
            <path d="M974.981 369.653l11.523 29.348 2.75-1.08-11.523-29.347q-64.636-168.918-68.977-349.78l3.335-.05-6.5-13.686.212 13.782q2.789 181.713 69.18 350.813z"
                  fill="#bdd6ec"/>
            <path d="M959.73 382.287l26.774 16.714 1.576-2.525-26.774-16.714q-149.58-95.218-257.922-235.642l2.668-2.022-13.385-7.195 8.344 11.014q107.608 142.04 258.719 236.37z"
                  fill="#bdd6ec"/>
            <path d="M960.756 417.368L986.504 399l-1.753-2.457-25.748 18.366q-29.256 19.733-62.538 31.475l-1.038-3.208-11.24 10.354 13.207-4.275q34.154-11.053 63.362-31.888z"
                  fill="#bcd6ec"/>
            <path d="M811.679 308.443l27.481 21.654 1.876-2.38-27.481-21.655q-78.427-63.63-116.408-157.41l3.15-1.224-11.012-10.636 5.037 12.958q37.107 95.46 117.357 158.693zm2.689-197.558l-5.31-29.343-2.99.541 5.31 29.343q37.644 216.925 141.508 411.098l-2.994 1.574 12.156 9.327-6.473-12.314q-102.13-194.278-141.207-410.226z"
                  fill="#bcd6eb"/>
            <path d="M955.569 521.1l12.633 24.031 2.696-1.417-12.633-24.032q-100.388-194.37-140.898-409.327l3.333-.603-8.81-12.557 2.48 13.703q39.076 215.935 141.199 410.201z"
                  fill="#bcd6eb"/>
            <path d="M897.448 449.24l-28.544 9.237.941 2.907 28.544-9.238q34.976-10.35 64.095-32.259l1.97 2.762 7.604-13.343-11.348 8.094q-29.162 20.803-63.262 31.84zm-75.449-340.798l-12.941-26.9-2.756 1.326 12.94 26.9q93.697 198.417 245.006 357.362l-2.474 2.322 14.245 5.754-9.54-10.168Q916.813 305.53 821.998 108.442zm-120.908 37.58l-16.878-22.279-2.441 1.85 16.878 22.279q106.803 143.562 259.345 236.943l-1.798 2.881 15.254 1.908-11.834-7.387q-150.998-94.26-258.526-236.195z"
                  fill="#bcd6eb"/>
            <path d="M694.346 149.81l-10.133-26.067-2.865 1.114 10.133 26.067q36.214 97.09 118.245 159.893l-2.106 2.672 14.978 3.558-10.97-8.644q-80.2-63.193-117.282-158.593z"
                  fill="#bcd6eb"/>
            <path d="M915.948 16.946L905.383-8.4l-2.858 1.19 10.565 25.346q35.786 89.43 113.342 146.29l-2.058 2.724 15.095 3.245-11.17-8.44q-75.766-57.245-112.351-145.01zM793.982 181.313l-10.78 29.475 2.913 1.065 10.781-29.474q13.466-34.114 14.04-70.817l3.415.14-5.943-14.266-.572 14q-1.473 36.029-13.854 69.877zm209.027 190.539l-16.505 27.149 2.66 1.617 16.505-27.148q46.62-74.107 49.13-161.651l3.422.15-5.916-14.3-.616 14.013q-3.796 86.341-48.68 160.17z"
                  fill="#bbd5eb"/>
            <path d="M1051.689 211.689l1.364-31.03-3.116-.136-1.364 31.029q-5.08 85.13-48.225 158.674l-2.928-1.78-1.698 15.392 7.29-11.992q44.881-73.823 48.677-160.157z"
                  fill="#bbd5eb"/>
            <path d="M1035.277 206.135l17.776-25.475-2.56-1.787-17.776 25.476Q920.132 362.952 763.25 477.986l-2.005-2.781-7.558 13.523 11.388-8.21q158.454-114.23 270.202-274.383zM906.112 19.097l-.73-27.496-3.125.083.729 27.496q2.3 144.242-52.901 277.38l-3.156-1.348.514 15.494 5.518-12.918q57.002-133.45 53.15-278.69z"
                  fill="#bbd5eb"/>
            <path d="M765.089 480.509l-22.341 16.105 1.832 2.541 22.34-16.105q160.014-113.418 270.917-275.108l2.816 1.965 2.658-15.285-8.044 11.527Q923.53 366.289 765.09 480.509z"
                  fill="#bbd5eb"/>
            <path d="M946.79 323.264l9.95-52.653-3.124-.59-9.95 52.652q-20.385 99.962 13.006 197.452l-3.289 1.077 10.705 11.36-4.393-13.426q-31.646-96.7-12.905-195.872z"
                  fill="#bad5eb"/>
            <path d="M1066.343 464.894l19.474 20.755 2.326-2.183-19.474-20.755Q920.8 302.801 824.96 107.237l3.123-1.503-12.128-9.857 6.13 12.743q94.73 196.91 244.26 356.274zM792.375 240.967l-9.174-30.18-3.07.934 9.174 30.18q8.962 32.548 28.01 60.34l-2.919 1.888 13.31 8.265-7.697-11.897q-17.99-27.807-27.634-59.53zm235.788-79.113l24.89 18.806 1.935-2.562-24.89-18.805q-73.818-57.51-111.122-143.425l3.21-1.338L910.56 4.023l5.452 13.08q36.52 87.608 112.15 144.75zm-220.333-50.25l1.228-30.062-3.213-.131-1.229 30.061q-2.363 35.17-13.596 68.579l-3.268-1.196 1.417 15.616 4.871-13.316q12.323-33.69 13.79-69.551z"
                  fill="#bad5eb"/>
            <path d="M853.015 297.66l-13.855 32.437 2.962 1.265 13.856-32.437q58.755-133.655 53.357-279.774l3.482-.092-7.078-14.004.376 14.182q3.848 145.1-53.1 278.423z"
                  fill="#bad4eb"/>
            <path d="M819.979 300.45l19.181 29.647 2.727-1.764-19.181-29.648q-16.9-27.772-27.206-58.608l3.346-1.017-10.592-11.65 4.138 13.611q9.627 31.669 27.587 59.428zm301.257-213.728l27.407 3.198.377-3.229-27.407-3.198q-37.419-5.322-71.762-21.09l1.54-3.142-15.748-.201 12.778 6.262q34.563 16.937 72.815 21.4z"
                  fill="#bad4eb"/>
            <path d="M827.79 105.24l-18.732-23.698-2.588 2.046 18.732 23.697q93.53 120.79 229.4 190.629l-1.642 3.118 15.832.628-12.652-6.665Q921.888 224.277 827.79 105.24z"
                  fill="#b9d4ea"/>
            <path d="M1056.136 294.993l26.677 14.052 1.538-2.921-26.676-14.052q-132.629-71.595-227.292-188.876l2.767-2.187-14.228-6.987 8.871 11.221q94.095 119.034 228.343 189.75zm-321.352 93.429l-21.792-20.2-2.252 2.43 21.792 20.2q45.643 43.895 106.39 61.703l-1.057 3.37 15.712-2.25-13.665-4.282q-59.435-18.621-105.128-60.971z"
                  fill="#b9d4ea"/>
            <path d="M1158.739 380.715l23.394 14.97 1.795-2.806-23.394-14.97q-126.857-82.988-212.3-208.064l2.945-1.968-13.685-8.109 7.971 11.927q84.718 126.76 213.274 209.02z"
                  fill="#b9d4ea"/>
            <path d="M1024.44 81.681l-2.17-29.174-3.334.248 2.17 29.174q1.829 37.095 16.862 71.003l-3.278 1.356 11.856 10.64-5.49-13.273q-13.913-33.642-16.616-69.974z"
                  fill="#b8d4ea"/>
            <path d="M1124.207 103.027l24.436-13.107-1.581-2.948-24.436 13.107q-76.047 39.287-161.481 39.51l.047-3.55-14.456 6.706 14.365.188q86.587 1.136 163.106-39.906z"
                  fill="#b8d4ea"/>
            <path d="M1048.564 65.392l-26.294-12.885-1.48 3.018 26.295 12.885q34.657 18.042 73.603 21.632l-.412 3.534 15.094-5.205-14.292-1.668q-38.094-4.444-72.514-21.311zM945.5 171.748l-19.566-29.276-2.805 1.875 19.565 29.276q83.965 128.399 214.173 209.9l-1.922 3.003 15.877 1.921-12.136-7.766Q1030.183 298.456 945.5 171.748zM660.335 277.966l-8.539-26.464-3.229 1.042 8.54 26.464q11.01 37.2 35.163 67.493l-2.849 2.16 14.271 7.294-8.719-11.503q-22.958-30.289-34.638-66.486zm70.656 66.468l-18 23.789 2.708 2.048 18-23.789q113.949-148.01 166.815-327.205l3.42 1.04-2.467-15.84-4.201 13.813Q843.165 196.182 730.99 344.434zm108.806 104.924l29.107 9.119 1.016-3.241-29.107-9.12q-57.993-19.392-103.632-60.104l2.431-2.623-15.33-4.702 10.59 9.816q45.605 42.269 104.925 60.855zm201.226-297.785l12.03 29.087 3.146-1.302-12.03-29.086q-12.757-33.284-16.327-68.755l3.571-.266-8.039-13.893 1.073 14.412q2.696 36.243 16.576 69.803z"
                  fill="#b8d3ea"/>
            <path d="M961.216 142.935l-35.282-.463-.044 3.426 35.28.463q87.647 2.49 164.555-40.261l1.698 3.165 9.444-13.029-12.761 6.845q-76.418 40.988-162.89 39.854zM694.938 344.406l18.054 23.817 2.736-2.074-18.053-23.818q-21.726-30.23-34.054-65.364l3.422-1.104-11.14-11.634 4.45 13.792q11.662 36.142 34.585 66.385zM897.24 18.377L905.382-8.4l-3.31-1.007-8.143 26.776q-55.306 176.493-165.643 324.904l-2.878-2.177-3.129 15.85 8.766-11.585q112.119-148.18 166.193-325.985zm62.318 500.341l8.644 26.413 3.313-1.084-8.644-26.413q-29.748-95.41-12.737-193.291l3.56.673-4.28-15.633-2.705 14.313q-18.66 98.74 12.849 195.022z"
                  fill="#b7d3ea"/>
            <path d="M1003.475 243.039L956.74 270.61l1.86 3.153 46.733-27.573q82.87-47.242 131.799-130.305l3.172 1.93 1.394-16.48-7.693 12.648q-49.373 81.172-130.531 129.055z"
                  fill="#b5d1e9"/>
            <path d="M996.57 368.018l-10.066 30.983 3.5 1.137 10.066-30.982q47.216-140.408 29.173-287.521l3.7-.416-9.012-13.913 1.655 14.74q16.408 146.156-29.017 285.972zm144.607-250.907l7.466-27.191-3.552-.976-7.466 27.192q-40.397 141.406-133.139 255.449l-2.865-2.38-3.78 16.145 9.479-11.412q94.621-113.923 133.857-256.827z"
                  fill="#b4d1e9"/>
            <path d="M1133.978 114.03l14.665-24.11-3.16-1.923-14.665 24.11q-49.783 79.227-129.178 127.719l-1.896-3.215-9.02 13.95 12.796-7.55q81.113-47.855 130.458-128.981z"
                  fill="#b4d1e9"/>
            <path d="M1025.589 82.072l-3.32-29.565-3.677.412 3.32 29.566q14.77 145.169-28.854 284.364l-3.55-1.153 2.479 16.428 4.59-14.131q45.417-139.791 29.012-285.921zm-18.245 291.837L986.504 399l2.855 2.371 20.84-25.092q96.48-113.78 134.547-258.149l3.606.99-3.247-16.315-3.938 14.342q-39.226 142.867-133.823 256.76zM955.2 122.03l-29.266 20.442 2.135 3.056 29.266-20.442q28.82-19.021 49.487-46.839l2.949 2.313 3.309-16.334-9.192 11.72q-20.932 26.695-48.688 46.083zM760.336 474.299l-17.588 22.315 2.947 2.323 17.588-22.315Q870.9 342.573 919.173 177.758l3.599 1.09-2.865-16.465-4.325 14.288Q866.11 340.096 760.336 474.299z"
                  fill="#b4d1e9"/>
            <path d="M918.516 177.474l7.418-35.002-3.706-.786-7.42 35.002q-15.498 67.194-56.626 122.539l-2.992-2.307-3.153 16.48 9.145-11.86q42.8-55.498 57.334-124.066z"
                  fill="#b3d0e9"/>
            <path d="M738.524 351.77l-25.532 16.453 2.054 3.188 25.533-16.453q108.375-68.075 170.8-179.577l3.276 1.885.906-16.762-7.47 12.986q-63.088 109.666-169.567 178.28z"
                  fill="#b3d0e9"/>
            <path d="M890.67 148.703l35.264-6.23-.663-3.756-35.265 6.23q-90.39 14.58-177.194-15.027l1.276-3.569-16.692 2.106 14.132 5.054q87.674 31.351 179.141 15.192z"
                  fill="#b3d0e8"/>
            <path d="M915.557 176.753l10.377-34.28-3.654-1.107-10.378 34.281q-50.64 161.941-154.511 296.22l-2.979-2.347-3.317 16.503 9.295-11.792q105.72-134.135 155.167-297.478z"
                  fill="#b3d0e8"/>
            <path d="M908.063 173.539l17.871-31.067-3.324-1.913-17.872 31.067Q841.02 279.399 736.494 348.515l-2.059-3.195-8.503 14.564 12.64-8.145q106.43-68.583 169.49-178.2z"
                  fill="#b3d0e8"/>
            <path d="M810.831 227.739l-27.63-16.951-2.008 3.272 27.63 16.952q111.466 70.133 242.89 79.351l-.308 3.79 15.613-6.395-14.993-1.222Q921.996 295.94 810.831 227.74z"
                  fill="#b3d0e8"/>
            <path d="M1003.796 76.065l18.474-23.558-3.024-2.371-18.473 23.558q-21.092 25.44-47.65 45.1l-2.179-3.118-7.955 14.883 12.334-8.615q27.633-19.303 48.473-45.88zM711.582 133.53l-27.369-9.787-1.299 3.633 27.369 9.786q88.502 33.08 181 15.35l.664 3.753 13.502-10.174-14.836 2.622q-91.411 16.15-179.031-15.183zm340.346 172.998l30.885 2.517.318-3.902-30.885-2.517q-128.519-11.965-239.284-78.173l2.008-3.273-16.96-1.307 12.905 7.917q111.081 68.15 241.013 78.738z"
                  fill="#b2d0e8"/>
            <path d="M861.39 301.27l-22.23 28.827 3.21 2.476 22.23-28.826q44.295-55.433 57.81-125.1l3.823.81-4.612-16.634-3.176 14.984q-14.463 68.235-57.054 123.464z"
                  fill="#b0cfe7"/>
            <path d="M903.713 20.386l1.67-28.785-4.094-.238-1.67 28.786q-3.674 45.867 11.33 89.14l-3.74 1.203 12.353 12.177-4.709-14.636q-13.746-42.72-11.14-87.647zm7.759 281.291l45.269-31.066-2.352-3.427-45.27 31.066q-75.596 50.179-165.99 62.223l-.465-3.93-14.385 9.872 15.338-1.815q92.023-10.884 167.855-62.923z"
                  fill="#afcee7"/>
            <path d="M881.558 429.544l-12.654 28.933 3.862 1.689 12.654-28.934q54.4-120.697 46.489-252.688l3.98-.193-8.944-15.1.754 15.498q6.36 130.747-46.14 250.795zm167.217-216.6l4.278-32.284-4.199-.557-4.278 32.285q-18.282 126.761 27.027 246.66l-3.752 1.369 13.058 11.78-5.327-14.6q-43.447-119.075-26.807-244.653z"
                  fill="#aecde7"/>
            <path d="M1020.683 176.909l32.37 3.75.49-4.222-32.371-3.751q-102.225-13.263-184.625-75.248l2.45-3.164-17.359-2.997 12.308 9.524q82.79 64.064 186.737 76.108z"
                  fill="#aecde7"/>
            <path d="M927.702 178.802l-1.768-36.33-4.252.207 1.767 36.33q4.808 129.44-45.77 248.78l-3.67-1.604 1.332 17.575 6.238-14.265q52.48-120 46.123-250.693z"
                  fill="#adcde7"/>
            <path d="M914.79 107.84l11.144 34.632 4.06-1.306-11.143-34.633q-12.419-41.946-10.892-85.697l4.001.232-7.357-16.031-.902 15.552q-2.594 44.724 11.09 87.25zm160.775 349.71l10.252 28.099 4.017-1.466-10.253-28.099q-41.565-118.194-26.574-242.53l3.978.528-6.169-16.545-2.048 15.456q-16.633 125.529 26.797 244.557zM802.984 323.871l36.176 6.226.73-4.24-36.177-6.225q-69.005-13.125-126.106-54.234l2.407-3.226-17.5-2.671 12.52 9.344q57.477 42.898 127.95 55.026z"
                  fill="#adcde7"/>
            <path d="M675.078 268.878l-23.282-17.376-2.6 3.483 23.282 17.376q57.82 44.66 129.715 55.785l-.686 3.987 16.873-5.612-15.45-2.66q-70.419-12.118-127.852-54.983zm345.591-92.932l32.384 4.714.629-4.32-32.385-4.715q-31.218-5.444-60.374-17.867l1.694-3.684-17.782 1.09 14.264 6.56q29.452 13.546 61.57 18.222zM743.897 364.567l-30.905 3.656.515 4.358 30.906-3.656q93.43-9.707 169.31-63.47l2.3 3.352 8.184-15.87-12.968 8.9q-75.599 51.879-167.342 62.73zm226.593 5.023L986.504 399l3.866-2.104-16.014-29.412q-46.581-88.46-45.082-188.353l4.07.118-8.013-15.983-.457 15.737q-2.943 101.4 45.616 190.586z"
                  fill="#accce6"/>
            <path d="M834.101 100.921l-25.043-19.379-2.702 3.492 25.044 19.378q83.064 66.045 188.58 76.86l-.47 4.05 16.63-6.622-15.653-1.814q-103.75-12.021-186.386-75.965z"
                  fill="#accce6"/>
            <path d="M924.871 179.095l1.063-36.623-4.477-.13-1.063 36.623q-4.383 102.836 46.118 192.686l-3.608 1.964 15.114 9.801-7.572-13.908q-48.515-89.105-45.575-190.413z"
                  fill="#abcce6"/>
            <path d="M959.24 157.79l-33.306-15.318-1.879 4.086 33.306 15.318q29.623 14.61 62.505 18.498l-.592 4.072 16.931-6.239-15.69-2.284q-31.964-4.653-61.275-18.133z"
                  fill="#abcbe6"/>
            <path d="M998.355 307.515l-41.614-36.904-3.16 3.564 41.614 36.903q67.256 61.482 157.065 82.179l-1.01 4.113 17.842-4.886-15.696-3.853q-87.893-21.57-155.04-81.116z"
                  fill="#a7cae5"/>
            <path d="M903.17 255.603l53.57 15.008 1.289-4.597-53.571-15.008q-110.01-32.361-194.97-110.1l2.901-3.093-17.965-4.492 11.798 11.067q85.183 79.903 196.948 111.215z"
                  fill="#a7c9e5"/>
            <path d="M1153.216 388.587l28.917 7.097 1.174-4.786-28.917-7.097q-85.755-22.386-152.626-79.851l2.858-3.223-18.36-3.936 12.232 10.847q67.009 59.422 154.722 80.95zm-225.094-70.054l28.619-47.922-4.24-2.532-28.619 47.922q-60.497 98.412-158.363 160.7l-2.27-3.666-9.037 16.478 13.907-8.613q100.043-61.964 160.003-162.367z"
                  fill="#a5c8e4"/>
            <path d="M1012.64 269.143l-55.9 1.468.133 5.03 55.899-1.469q75.138-.694 142.285-36.47l1.985 3.874 10.368-15.86-14.648 7.509q-66.292 33.978-140.122 35.918z"
                  fill="#a4c8e4"/>
            <path d="M768.223 480.835l-25.475 15.78 2.66 4.293 25.475-15.78q102.136-61.593 161.512-163.9l3.744 2.235.37-18.975-8.45 14.15q-59.897 100.298-159.836 162.197z"
                  fill="#a4c7e4"/>
            <path d="M706.5 144.649l-22.287-20.906-3.503 3.735 22.287 20.906q85.201 81.858 198.424 112.047l-1.185 4.228 18.51-4.692-15.944-4.467Q791.405 224.291 706.5 144.649z"
                  fill="#a3c7e3"/>
            <path d="M744.932 363.67l-31.94 4.553.764 5.361 31.94-4.553q32.289-3.716 61.283-18.095l1.894 4.1 11.147-16.093-15.313 7.077q-28.564 13.2-59.775 17.65z"
                  fill="#a0c5e2"/>
            <path d="M1152.386 233.417l27.147-13.914-2.476-4.83-27.147 13.914q-64.968 31.955-136.991 35.118l-.119-4.52-16.615 10.39 16.877-.443q73.408-1.929 139.324-35.715z"
                  fill="#9fc5e2"/>
            <path d="M1000.72 235.18l-43.98 35.431 3.489 4.33 43.979-35.432q17.058-12.78 30.676-29.528l3.45 3.006 3.536-19.49-11.179 12.832q-13.744 15.776-29.972 28.85zM804.554 346.09l34.606-15.993-2.34-5.065-34.607 15.993q-27.959 11.944-57.902 17.097l-.647-4.538-15.433 12.466 16.868-2.404q31.044-4.426 59.455-17.556z"
                  fill="#9ec4e2"/>
            <path d="M1030.656 206.369l22.397-25.71-4.232-3.686-22.397 25.71q-13.831 14.76-29.184 28.093l-2.885-3.58-6.888 18.66 13.294-10.71q16.186-13.04 29.895-28.777z"
                  fill="#9dc3e1"/>
            <path d="M900.994 260.568l55.747 10.043 1.015-5.636-55.747-10.044q-45.424-9.282-86.054-31.719l2.335-4.014-20.07.324 14.856 8.641q41.264 23.999 87.918 32.405z"
                  fill="#9cc3e1"/>
            <path d="M889.362 432.19l-20.458 26.287 4.567 3.554 20.458-26.286q39.341-48.727 53.957-108.827l4.514 1.19-5.715-19.341-4.395 16.677q-15.437 58.573-52.928 106.747zm-46.772-63.876l-3.43-38.217-5.803.52 3.43 38.218q1.95 31.574 14.435 60.774l-4.356 1.723 16.13 12.208-6.357-16.073q-11.306-28.587-14.05-59.153z"
                  fill="#9bc2e1"/>
            <path d="M813.177 228.221L783.2 210.788l-2.938 5.052 29.976 17.433q41.817 25.513 89.604 33.025l-.832 4.618 18.897-7.301-17.029-3.068q-46.54-8.385-87.702-32.326zm43.447 199.207l12.28 31.049 5.457-2.158-12.28-31.05q-10.11-27.926-13.643-57.438l4.682-.42-12.075-16.313 1.549 17.257q2.74 30.525 14.03 59.073z"
                  fill="#9ac2e0"/>
            <path d="M1009.723 291.252l-52.982-20.64-2.159 5.54 52.983 20.64q19.827 8.541 41.471 11.895l-.882 4.65 19.09-7.247-17.099-3.245q-20.792-3.946-40.422-11.593z"
                  fill="#99c1e0"/>
            <path d="M942.238 325.64l14.503-55.029-5.797-1.527-14.502 55.029q-16.193 56.816-51.685 104.235l-3.75-2.918-2.237 20.371 10.717-13.771q37.366-48.013 52.751-106.39z"
                  fill="#99c1e0"/>
            <path d="M983.52 220.344l-26.78 50.267 5.335 2.842 26.78-50.267q35.505-63.98 37.893-138.035l4.766.23-9.961-18-.842 17.479q-3.478 72.205-37.19 135.484z"
                  fill="#98c0e0"/>
            <path d="M1020.707 84.943l1.563-32.436-6.124-.295-1.563 32.436q-4.56 70.25-36.434 132.74l-4.24-2.26 1.384 20.66 8.267-15.518q33.673-63.205 37.147-135.327z"
                  fill="#97c0df"/>
            <path d="M1062.83 463.34l22.987 22.309 4.366-4.5-22.987-22.308q-58.503-58.497-86.177-136.091l4.602-1.56-16.222-13.206 5.682 16.777q26.953 79.58 87.748 138.58z"
                  fill="#95bfdf"/>
            <path d="M975.095 324.804l-18.354-54.193-5.985 2.027 18.355 54.193q26.223 81.532 89.286 141.012l-3.398 3.5 20.542 4.333-12.744-12.368q-60.763-58.967-87.702-138.504z"
                  fill="#95bedf"/>
            <path d="M1049.74 302.768l33.073 6.277 1.19-6.267-33.073-6.276q-19.49-4.45-38.507-11.044l1.779-4.567-20.695 4.044 16.6 6.466q19.246 7.498 39.634 11.367z"
                  fill="#94bede"/>
            <path d="M912.54 233.235l44.2 37.376 4.559-5.39-44.202-37.376q-56.412-49.359-87.758-117.713l4.72-2.075-18.599-11.953 7.417 16.87q31.106 70.748 89.662 120.261z"
                  fill="#8cb9dc"/>
            <path d="M822.91 113.047l-13.852-31.505-6.548 2.88 13.852 31.504q30.845 73.088 91.497 122.72l-3.351 3.962 22.102 2.526-14.133-11.95q-58.494-49.462-89.567-120.137z"
                  fill="#8bb9db"/>
            <path d="M965.946 329.058l-9.205-58.447-8.533 1.344 9.206 58.447q2.145 18.345 8.865 35.913l-5.4 1.834 19.917 14.05-6.339-18.663q-5.744-16.911-8.511-34.478z"
                  fill="#79aed6"/>
            <path d="M974.451 363.518l12.053 35.483 8.202-2.787-12.052-35.482q-4.762-16.235-8.148-33.002l5.643-.889-17.27-17.252 3.07 19.488q2.764 17.548 8.502 34.441z"
                  fill="#79aed5"/>
            <path d="M932.014 182.782l-6.08-40.31-8.874 1.339 6.08 40.31q1.831 16.762 7.42 32.398l-5.552 1.723 20.04 14.684-5.916-19.066q-4.73-15.244-7.118-31.078z"
                  fill="#75acd4"/>
            <path d="M939.111 213.795l17.63 56.816 8.66-2.687-17.63-56.816q-3.849-14.78-6.781-29.61l5.778-.872-17.731-17.583 2.987 19.807q2.378 15.766 7.087 30.945z"
                  fill="#74abd4"/>
            <path d="M877.33 314.701l-38.17 15.396 3.413 8.462 38.17-15.396q15.636-5.566 29.346-14.461l2.977 5.05 9.683-23.104-17.293 10.193q-13.522 7.97-28.125 13.86z"
                  fill="#73abd4"/>
            <path d="M905.39 300.88l51.35-30.269-4.686-7.95-51.351 30.268q-13.261 7.003-26.753 13.184l-2.205-5.468-13.03 21.565 18.687-7.537q14.532-5.862 27.988-13.793z"
                  fill="#72aad3"/>
        </g>
        <g transform="matrix(.94 0 0 .94 255.497 -175.322)">
            <circle r="41.91" cx="744.815" cy="473.641" fill="#bce4b6" stroke="#38a055" stroke-width="5"/>
            <circle r="22.396" cx="619.928" cy="536.822" fill="#c6e8c0" stroke="#72bf7e" stroke-width="3.022"/>
            <circle r="22.096" cx="712.094" cy="337.539" fill="#c7e8c1" stroke="#6bbb79" stroke-width="3.25"/>
            <circle r="18.847" cx="776.427" cy="610.007" fill="#c8e9c2" stroke="#7cc485" stroke-width="2.681"/>
            <circle r="18.453" cx="560.493" cy="410.1" fill="#c8e9c2" stroke="#89cb8e" stroke-width="2.242"/>
            <circle r="18.083" cx="847.111" cy="378.1" fill="#c9e9c3" stroke="#85c98b" stroke-width="2.369"/>
            <circle r="17.06" cx="651.521" cy="673.179" fill="#c9e9c3" stroke="#85c98b" stroke-width="2.353"/>
            <circle r="16.896" cx="587.956" cy="272.824" fill="#c9eac3" stroke="#85c98b" stroke-width="2.366"/>
            <circle r="16.832" cx="878.72" cy="514.462" fill="#c9eac3" stroke="#8dcd90" stroke-width="2.104"/>
            <circle r="16.35" cx="485.92" cy="577.317" fill="#caeac4" stroke="#8ccc90" stroke-width="2.129"/>
            <circle r="15.818" cx="814.415" cy="241.984" fill="#caeac4" stroke="#8bcc8f" stroke-width="2.163"/>
            <circle r="15.21" cx="881.911" cy="702.039" fill="#caeac4" stroke="#8ece91" stroke-width="2.051"/>
            <circle r="14.87" cx="455.354" cy="317.647" fill="#caeac4" stroke="#8dcd91" stroke-width="2.077"/>
            <circle r="14.469" cx="981.45" cy="419.356" fill="#cbeac5" stroke="#90cf93" stroke-width="1.994"/>
            <circle r="14.323" cx="517.526" cy="713.686" fill="#cbeac5" stroke="#93d095" stroke-width="1.899"/>
            <circle r="14.295" cx="690.265" cy="177.294" fill="#cbeac5" stroke="#93d095" stroke-width="1.875"/>
            <circle r="14.262" cx="984.211" cy="606.485" fill="#cbeac5" stroke="#96d297" stroke-width="1.797"/>
            <circle r="14.205" cx="420.923" cy="453.344" fill="#cbeac5" stroke="#98d398" stroke-width="1.715"/>
            <circle r="14.193" cx="948.641" cy="281.722" fill="#cbeac5" stroke="#96d297" stroke-width="1.781"/>
            <circle r="14.047" cx="756.988" cy="765.218" fill="#cbeac5" stroke="#97d297" stroke-width="1.765"/>
        </g>
        <g>
            <path d="M333.542 638.048l.789-27.212-2.566-.074-.788 27.211q-7.486 203.678 54.29 397.922l-2.97.92 9.31 10.885-3.889-12.564q-60.06-194.052-54.176-397.088zm-165.949 271l-6.906-35.942-2.53.486 6.905 35.942q18.254 102.76 88.884 180.32l-2.332 2.066 12.993 6.083-8.733-9.858q-68.79-77.65-88.281-179.097zm-30.395-252.485l-11.19-25.494-2.361 1.037 11.189 25.494q90.854 210.977 241.572 384.353l-2.366 2.028 12.898 6.295-8.574-10.002q-149.104-173.94-241.168-383.711zm83.96-90.421l1.263-24.934-2.577-.13-1.263 24.934q-7.605 120.651 46.62 228.148l-2.8 1.369 10.904 9.335-5.785-11.837q-52.42-107.254-46.362-226.885z"
                  fill="#c2d9ed"/>
            <path d="M482.442 783.303l22.921-12.557-1.246-2.274-22.92 12.557q-133.626 71.448-284.251 86.279l-.274-3.113-12.645 6.854 13.147-1.158q151.602-13.357 285.268-86.588z"
                  fill="#c1d9ed"/>
            <path d="M487.682 789.993l17.681-19.247-1.91-1.755-17.68 19.247q-115.9 123.86-268.366 198.147l-1.343-2.822-9.46 10.835 11.917-5.672q153.862-73.22 269.161-198.733zM105.938 732.62l-11.285 26.472 2.387 1.017 11.284-26.472q16.19-35.551 18.178-74.585l3.117.235-4.712-13.592-.992 13.162q-2.891 38.374-17.977 73.763z"
                  fill="#c1d9ed"/>
            <path d="M378.347 1040.252l17.145 20 1.971-1.69-17.144-20q-147.47-174.48-240.732-383.016l2.863-1.257-10.547-9.79 5.306 12.09q92.053 209.745 241.138 383.663zM31.753 908.278l11.522 24.731 2.354-1.097-11.521-24.732Q-11.695 805.35-.834 694.19l3.109.345-4.233-13.756-1.458 13.124q-12.459 112.138 35.17 214.375z"
                  fill="#c1d9ed"/>
            <path d="M329.953 980.54l-13.385-25.841-2.313 1.198 13.385 25.841q17.398 35.67 46.917 62.29l-2.153 2.276 13.544 4.917-9.6-9.085q-28.418-26.89-46.395-61.596zm-29.105-187.493l-16.74 33.919 2.34 1.155 16.74-33.92q37.689-73.348 34.402-156.139l3.135-.075-6.059-13.084.316 13.221q1.95 81.812-34.134 154.923zm-202.502 256.8l-22.622 10.904 1.136 2.357 22.622-10.904q214.072-101.417 388.273-261.917l2.111 2.323 5.924-13.162-9.795 8.903q-174.822 158.91-387.65 261.496z"
                  fill="#c1d9ed"/>
            <path d="M278.673 1082.867l-6.648 23.508 2.522.714 6.649-23.509Q344.59 865.267 337.6 638.082l3.142-.075-6.077-13.104.315 13.241q5.384 226.591-56.307 444.723z"
                  fill="#c1d9ed"/>
            <path d="M340.44 938.006L316.569 954.7l1.502 2.148 23.873-16.692q32.558-21.605 54.894-53.71l2.535 1.857 3.176-14.092-7.826 10.686q-22.748 31.061-54.281 53.11z"
                  fill="#c1d9ed"/>
            <path d="M218.564 988.706l-25.455 12.114 1.126 2.367 25.456-12.114q155.22-72.136 269.89-199.271l2.314 2.126 4.716-13.654-8.961 9.754Q372.383 915.506 218.564 988.706z"
                  fill="#c1d9ed"/>
            <path d="M193.035 890.395l-32.348-17.29-1.236 2.314 32.348 17.289q127.466 69.88 273 76.746l-.18 3.138 13.558-4.993-13.226-.763q-144.503-8.343-271.916-76.441zM8.03 692.673l-8.558-24.765-2.482.858 8.558 24.765q54 161.05 167.013 287.8l-2.366 2.07 13.07 6.173-8.728-9.972Q63.235 852.436 8.03 692.673z"
                  fill="#c1d9ed"/>
            <path d="M334.98 638.162l-.65-27.326-2.63.062.649 27.327q3.777 225.978-56.204 443.908l-3.03-.856 1.953 14.335 3.61-12.762q61.686-218.115 56.302-444.688zm-160.47 341.41l18.599 21.248 1.993-1.745-18.598-21.248Q66.942 850.28 10.547 691.846l2.985-1.032-9.83-10.666 4.34 12.563q55.193 159.725 166.469 286.86z"
                  fill="#c1d9ed"/>
            <path d="M220.166 992.714l-27.057 8.106.761 2.542 27.058-8.105q103.145-29.38 173.635-110.251l2.355 2.11 4.543-13.787-8.875 9.906q-70.799 79.036-172.42 109.48z"
                  fill="#c1d9ed"/>
            <path d="M267.461 792.907l16.646 34.059 2.39-1.168-16.647-34.058q-50.548-106.874-46.043-225.33l3.16.16-5.142-13.586-.673 13.291q-6.052 119.498 46.31 226.632zm106.07-29.603l4.96-28.297-2.62-.459-4.96 28.297q-25.762 138.113 14.69 272.734l-3.04.878 9.287 11.171-3.692-12.787q-38.714-134.107-14.625-271.537z"
                  fill="#c1d8ed"/>
            <path d="M197.293 869.88l-36.606 3.226.234 2.654 36.606-3.225Q350 860.66 483.617 785.698l1.523 2.778 8.877-11.514-11.68 6.399q-133.561 73.173-285.044 86.52zm-31.801 124.927l27.617 6.013.566-2.604-27.616-6.012q-53.951-12.898-99.188-45.024l1.887-2.545-14.173-3.244 10.7 7.93q45.225 33.516 100.207 45.486zm203.543 64.61l26.457.835.084-2.671-26.457-.835q-80.445-3.846-150.33-43.794l1.62-2.728-14.448-1.777 11.465 6.803q70.09 41.594 151.609 44.167z"
                  fill="#c1d8ed"/>
            <path d="M91.46 1041.06l-15.736 19.691 2.088 1.669 15.736-19.692q48.492-58.666 62.394-133.07l3.108.635-3.056-14.232-2.67 13.06q-14.981 73.267-61.864 131.938z"
                  fill="#c1d8ed"/>
            <path d="M291.182 969.184l25.386-14.485-1.328-2.328-25.386 14.485q-32.97 17.722-69.506 25.874l-.614-3.117-11.961 8.322 13.092-2.576q37.305-7.34 70.317-26.175zM92.853 787.965l1.8-28.873-2.68-.167-1.8 28.873q-5.174 63.771-35.704 120.025l-2.766-1.569-1.484 14.509 6.587-11.615q32.011-56.45 36.047-121.183z"
                  fill="#c0d8ed"/>
            <path d="M220.893 995.354l-27.784 5.466.52 2.646L221.413 998q38.049-6.523 71.081-26.46l1.58 2.768 8.697-11.737-11.613 6.627q-32.988 18.822-70.265 26.156z"
                  fill="#c0d8ed"/>
            <path d="M392.528 883.3l18.432-20.576-2.017-1.806-18.432 20.576q-71.038 77.126-171.038 108.602l-.916-3.059-11.132 9.494 12.825-3.842Q321.787 962.27 392.528 883.3z"
                  fill="#c0d8ed"/>
            <path d="M466.918 958.043l22.972 10.232 1.108-2.488-22.972-10.232Q227.81 846.805 21.693 682.357l2.012-2.491-14.16-3.82 10.436 8.43q205.55 166.049 446.937 273.567z"
                  fill="#c0d8ed"/>
            <path d="M383.416 860.15l27.544 2.574.254-2.719-27.544-2.574q-140.592-14.679-262.715-85.814l1.644-2.754-14.572-1.785 11.528 6.883q122.163 72.944 263.861 86.189z"
                  fill="#c0d8ed"/>
            <path d="M204.01 974.612l-10.901 26.208 2.528 1.051 10.9-26.207q48.891-113.63 35.185-236.312l3.196-.317-7.249-12.786 1.329 13.374q12.097 121.79-34.988 234.99zm288.282-180.926l13.071-22.94-2.393-1.364-13.071 22.94q-54.745 93.114-148.86 145.942l-1.537-2.83-8.978 11.68 11.83-6.43q95.864-52.103 149.938-146.998z"
                  fill="#c0d8ed"/>
            <path d="M217.544 1015.32l-24.435-14.5-1.407 2.37 24.435 14.5q70.197 43.179 152.673 44.478l-.101 3.22 13.65-5.55-13.462-.425q-81.381-2.569-151.353-44.092zm-97.953-241.337l-24.938-14.891-1.414 2.367 24.939 14.89q122.171 74.733 264.94 86.542l-.3 3.208 13.967-4.7-13.41-1.253q-141.657-13.241-263.784-86.163z"
                  fill="#c0d8ed"/>
            <path d="M403.967 1035.027l-8.475 25.225 2.614.879 8.476-25.225q25.393-71.616 11.656-146.305l3.179-.53-8.115-12.304 2.216 13.288q12.326 73.911-11.55 144.972zM56.865 909.043l-13.59 23.966 2.4 1.361 13.59-23.966q33.441-56.558 36.334-122.147l3.217.2-5.132-13.818-.839 13.447q-4.028 64.611-35.98 120.957zm96.429.222l7.393-36.16-2.706-.553-7.393 36.16q-16.023 71.965-61.194 130.509l-2.52-2.014-3.736 14.267 8.413-10.53q46.792-58.556 61.743-131.679zm-3.082-263.812l-24.203-14.384-1.415 2.38 24.204 14.384q153.164 92.85 330.049 121.229l-.54 3.183 14.3-3.66-13.298-2.253q-175.824-29.785-329.097-120.879z"
                  fill="#bfd8ed"/>
            <path d="M452.58 656.962l11.37-22.294-2.466-1.259-11.371 22.294q-48.516 91.952-135.292 148.564l-1.726-2.73-8.196 12.28 11.402-7.21q88.495-55.96 136.279-149.645z"
                  fill="#bfd8ed"/>
            <path d="M342.395 940.662l-25.827 14.037 1.329 2.444 25.827-14.037q97.579-51.36 150.962-148.003l2.813 1.602 1.459-14.718-6.689 11.738q-54.05 94.856-149.874 146.937z"
                  fill="#bfd8ec"/>
            <path d="M479.241 766.32l26.122 4.426.47-2.771-26.122-4.425q-174.688-31.18-328.004-120.478l1.662-2.796-14.752-1.714 11.654 6.926q153.214 91.059 328.97 120.833zM20.096 684.568l-20.624-16.66-1.769 2.19 20.624 16.66q204.877 167.565 447.311 273.796l-1.324 2.974 14.858-.026-12.389-5.519Q225.53 850.525 20.096 684.568z"
                  fill="#bfd7ec"/>
            <path d="M482.194 783.65l23.17-12.904-1.376-2.47-23.17 12.904q-74.413 39.924-158.57 42.434l-.045-3.262-13.498 6.276 13.582-.187q85.177-1.171 159.907-42.791z"
                  fill="#bfd7ec"/>
            <path d="M111.1 783.198l-16.447-24.106-2.348 1.602 16.448 24.106q68.877 103.607 180.272 158.983l-1.491 2.911 14.896.763-12.11-6.203Q180.594 885.045 111.1 783.198z"
                  fill="#bed7ec"/>
            <path d="M356.723 754.254l21.768-19.247-1.895-2.143-21.768 19.246Q227.17 862.9 68.428 921.024l-1.1-3.093-10.79 10.36 12.85-4.571q160.07-56.945 287.335-169.466zM214.39 981.655l-21.281 19.165 1.938 2.152 21.28-19.164q103.947-91.562 154.029-220.699l3.066 1.228-.664-15.016-5.09 12.712q-51.115 127.617-153.28 219.622z"
                  fill="#bed7ec"/>
            <path d="M367.657 762.058l10.834-27.05-2.704-1.084-10.835 27.05Q312.82 887.048 212.46 979.473l-2.217-2.461-6.029 13.808 10.196-9.182q102.144-91.986 153.247-219.58zm47.902 128.245l-4.6-27.579-2.875.48 4.6 27.579q10.872 72.848-11.4 143.077l-3.141-1.055 1.534 14.992 4.37-13.008q23.797-70.823 11.512-144.486zM2.381 815.219l-25.156 3.736.428 2.885 25.157-3.737q116.005-15.739 206.562-89.262l2.055 2.6 6.9-13.4-10.764 8.513Q116.969 798.2 2.38 815.22z"
                  fill="#bed7ec"/>
            <path d="M223.606 566.722l-1.185-25.514-2.93.136 1.185 25.514q7.186 188.476 81.703 361.66l-3.064 1.287 11.097 10.251-5.33-12.675q-72.762-173.062-81.476-360.66z"
                  fill="#bdd7ec"/>
            <path d="M99.874 1052.173l-24.15 8.578.982 2.765 24.15-8.579q162.95-56.236 291.07-171.484l2.2 2.491 6.164-13.795-10.307 9.105q-128.503 113.51-290.11 170.919z"
                  fill="#bdd7ec"/>
            <path d="M389.972 881.264l20.988-18.54-1.95-2.206-20.987 18.54q-128.874 111.76-289.12 170.336l-1.115-3.138-10.873 10.52 12.973-4.608q161.592-57.404 290.084-170.904z"
                  fill="#bdd6ec"/>
            <path d="M290.166 941.174l26.402 13.525 1.346-2.628-26.402-13.524Q183.629 881.6 113.638 781.678l2.754-1.879-12.96-7.84 7.767 11.383q69.394 101.703 178.967 157.832z"
                  fill="#bdd6ec"/>
            <path d="M69.527 923.67l-26.252 9.339.99 2.785 26.252-9.34q161.278-55.723 288.053-169.888l2.21 2.5 6.16-13.845-10.328 9.131Q229.459 866.775 69.527 923.67z"
                  fill="#bdd6ec"/>
            <path d="M296.789 932.573l19.779 22.126 2.207-1.973-19.78-22.126Q192.492 809.134 138.126 656.99l3.156-1.093-10.47-10.97 4.517 13.033q53.2 153.507 161.46 274.612z"
                  fill="#bdd6ec"/>
            <path d="M287.404 960.225l29.164-5.526-.552-2.912-29.164 5.525q-110.446 19.424-216.368-17.555l1.143-3.14-15.123 1.206 12.967 4.72q106.57 38.781 217.933 17.682zm35.134-133.787l-38.43.528.04 2.986 38.43-.528q85.983.166 160.85-43.043l1.632 2.93 9-12.27-12.086 6.73q-74.51 41.499-159.436 42.667z"
                  fill="#bdd6ec"/>
            <path d="M97.985 788.35l-3.332-29.258-2.991.34 3.332 29.258q10.743 107.143 78.04 191.24l-2.657 2.068 13.551 7.028-8.52-10.945q-65.38-83.996-77.423-189.731zM23.97 678.853L-.528 667.908l-1.231 2.756 24.498 10.944q84.83 39.393 177.428 29.228l.318 3.356 13.217-7.67-13.82 1.31q-91.619 8.68-175.912-28.98z"
                  fill="#bcd6ec"/>
            <path d="M199.874 707.832l35.63-3.375-.284-3.01-35.631 3.376q-90.63 7.195-174.378-28.727l1.376-3.08-15.292.174 12.682 5.666q84.286 37.656 175.897 28.976z"
                  fill="#bcd6ec"/>
            <path d="M207.41 726.675l28.095-22.218-1.887-2.386-28.094 22.218q-90.452 69.632-203.397 87.893l-.498-3.348-12.823 8.401 13.767-2.045Q116.97 798.2 207.41 726.675z"
                  fill="#bcd6eb"/>
            <path d="M135.37 658.079l-9.361-27.01-2.875.996 9.36 27.01q52 154.768 161.943 275.432l-2.523 2.256 14.068 6.093-9.277-10.376Q188.527 811.468 135.37 658.079zm39.99 319.94l17.749 22.8 2.416-1.88-17.749-22.801q-63.41-83.82-76.74-188.056l3.374-.384-7.995-13.13 1.579 13.86q12.033 105.657 77.366 189.59z"
                  fill="#bcd6eb"/>
            <path d="M489.64 792.593l15.723-21.847-2.501-1.8-15.723 21.847q-23.342 30.795-54.653 53.432l-1.926-2.81-7.86 13.258 11.53-7.906q32.43-22.24 55.41-54.174zM71.334 933.283l-28.06-.274-.03 3.084 28.06.274q163.693 3.145 314.692-60.127l1.287 3.156 10.495-11.294-12.947 5.282q-150.72 61.488-313.497 59.899z"
                  fill="#bcd5eb"/>
            <path d="M384.83 873.384l26.13-10.66-1.166-2.856-26.13 10.66q-150.44 59.704-312.299 59.67l.034-3.408-14.047 6.356 13.983.137q162.775 1.589 313.495-59.899zm-16.166 182.876l26.828 3.992.454-3.051-26.828-3.992Q208.634 1027.767 68.875 944.91l1.766-2.915-15.325-1.692 11.96 7.246q139.753 84.66 301.388 108.711z"
                  fill="#bcd5eb"/>
            <path d="M15.904 689.269l-16.432-21.36-2.454 1.887 16.432 21.36q154.127 202.975 358.514 355.219l-2.057 2.725 15.097 3.237-11.175-8.433Q170.909 890.767 15.904 689.269zm361.699 350.571l17.889 20.412 2.33-2.041-17.89-20.413q-64.786-76.068-85.36-173.546l3.352-.657-9.085-12.488 2.694 13.741q19.386 98.9 86.07 174.992zm-60.807-233.545l-32.689 20.671 1.682 2.66 32.688-20.672q89.792-55.058 136.64-150.041l3.066 1.564.526-15.533-6.395 12.54q-47.518 93.163-135.518 148.81z"
                  fill="#bbd5eb"/>
            <path d="M304.956 927.08l11.612 27.619 2.9-1.22-11.612-27.619q-70.87-172.604-81.092-358.958l3.439-.16-7.235-13.756.653 14.062q8.699 187.27 81.335 360.032zm129.377-80.385l-23.373 16.03 1.79 2.61 23.373-16.029q33.458-21.781 56.014-54.762l2.802 2.017 2.867-15.314-8.239 11.448q-22.908 31.831-55.234 54z"
                  fill="#bbd5eb"/>
            <path d="M315.024 803.644l-30.917 23.322 1.915 2.539 30.918-23.322q26.746-19.061 46.11-45.786l2.747 2.104 3.318-15.253-8.59 11.215q-19.702 25.72-45.5 45.181z"
                  fill="#bad5eb"/>
            <path d="M360.5 758.495l17.991-23.488-2.546-1.95-17.991 23.488q-20.013 24.68-44.829 44.514l-2.093-2.775-7.285 13.868 11.31-8.532q25.766-19.436 45.443-45.125zM67.433 947.644l-24.158-14.635-1.663 2.744 24.159 14.635q139.61 86.38 302.24 109.018l-.512 3.438 14.997-4.525-14.014-2.086Q207.03 1032.21 67.433 947.644z"
                  fill="#bad5eb"/>
            <path d="M379.654 1037.954l15.838 22.298 2.64-1.874-15.838-22.3q-94.899-136.284-135.2-297.267l3.395-.817-9.865-12.244 3.322 13.817q39.001 162.227 135.708 298.387zM69.867 942.686l-26.592-9.677-1.11 3.049 26.593 9.677q106.897 40.458 218.835 17.756l.651 3.434 12.717-9.27-13.972 2.648q-110.948 21.021-217.122-17.617z"
                  fill="#bad4eb"/>
            <path d="M373.65 1043.768l21.842 16.484 1.956-2.592-21.843-16.484Q174.35 887.296 18.615 687.467l2.772-2.132-14.02-7.163 8.674 11.275q154.868 201.32 357.608 354.321z"
                  fill="#bad4eb"/>
            <path d="M223.545 567.221l-1.124-26.013-3.26.141 1.125 26.013q4.539 140.064-48.064 269.728l-3.233-1.353.743 15.755 5.5-13.142q54.411-130.028 48.313-271.129zm20.409 172.381l-8.45-35.145-3.171.762 8.45 35.146q37.694 163.44 136.191 299.449l-2.857 2.03 13.766 7.696-8.25-11.615q-96.686-136.13-135.679-298.323zm161.367 8.068l-26.83-12.663-1.393 2.952 26.83 12.662q34.977 17.56 74.058 20.605l-.357 3.488 14.864-5.285-14.175-1.45q-38.254-3.913-72.997-20.31z"
                  fill="#b9d4eb"/>
            <path d="M175.257 838.288l-14.57 34.818 3.052 1.277 14.57-34.818q56.198-130.338 48.544-272.42l3.526-.152-7.45-14.005.619 14.3q6.095 141.034-48.29 271z"
                  fill="#b9d4ea"/>
            <path d="M478.175 767.965l27.188 2.78.342-3.345-27.187-2.78q-37.267-4.765-71.631-19.93l1.519-3.219-15.97.117 13.015 6.143q34.613 16.335 72.724 20.234zm-186.562 97.294l-7.506-38.293-3.32.65 7.506 38.293q18.14 99.981 86.49 175.846l-2.685 2.353 14.734 6.263-9.505-10.846q-66.408-75.776-85.714-174.266z"
                  fill="#b8d3ea"/>
            <path d="M71.59 928.991l-28.315 4.018.485 3.42 28.315-4.018q103.135-13.207 183.472-78.487l2.235 2.83 7.02-14.541-11.396 9Q173.173 914.578 71.59 928.99z"
                  fill="#b7d3ea"/>
            <path d="M377.968 765.11l.523-30.103-3.573-.062-.524 30.102q-2.831 86.339-45.424 161.48l-3.164-1.858-1.193 16.333 7.439-12.664q44.391-75.577 45.916-163.229z"
                  fill="#b6d2e9"/>
            <path d="M125.467 660.456l.542-29.387-3.602-.066-.541 29.387q-4.544 163.078 56.966 314.172l-3.424 1.356 12.196 11.007-5.423-13.69q-59.702-150.703-56.714-312.779zm255.581 104.623l-2.557-30.072-3.615.308 2.558 30.071q2.28 37.906 18.49 72.28l-3.381 1.494 12.664 10.542-5.965-13.502q-15.041-34.048-18.194-71.121z"
                  fill="#b5d2e9"/>
            <path d="M197.053 861.38l-36.366 11.726 1.118 3.466 36.366-11.727q96.015-29.475 162.72-105.03l2.742 2.49 4.495-15.88-9.934 10.943q-66.804 73.591-161.14 104.011z"
                  fill="#b5d1e9"/>
            <path d="M358.147 757.418l20.344-22.41-2.734-2.483-20.344 22.411q-66.848 71.569-159.428 102.907l-1.145-3.55-11.853 11.622 14.131-4.557q94.272-30.399 161.03-103.94zm41.057 78.696l11.756 26.61 3.382-1.494-11.755-26.61q-13.831-33.626-17.846-69.761l3.718-.316-8.661-14.172 1.258 14.801q3.145 36.98 18.148 70.942z"
                  fill="#b4d1e9"/>
            <path d="M137.855 658.179l-11.846-27.11-3.432 1.5 11.846 27.11q37.649 89.578 115.835 146.55l-2.255 3.004 16.433 2.96-11.929-8.958q-76.31-57.308-114.652-145.056z"
                  fill="#b4d1e9"/>
            <path d="M253.032 851.508l31.075-24.542-2.358-2.986-31.075 24.542q-79.68 61.108-179.147 76.635l-.532-3.748-13.782 9.622 14.848-2.107q101.112-14.346 180.971-77.416zm79.178 76.559l-15.642 26.632 3.284 1.929 15.643-26.632Q381.549 854.2 381.77 765.49l3.787.066-7.334-15.132-.26 15q-1.52 87.337-45.752 162.643z"
                  fill="#b3d0e8"/>
            <path d="M182.053 972.912l11.056 27.908 3.59-1.423-11.055-27.907q-57.752-149.94-56.321-310.615l3.813.07-7.398-15.211-.278 15.07q-2.981 161.728 56.593 312.108z"
                  fill="#b2d0e8"/>
            <path d="M129.954 849.79l30.733 23.316 2.37-3.123-30.733-23.316q-79.055-61.76-118.551-154.259l3.554-1.46-12.935-11.061 5.755 14.01q38.78 94.42 119.807 155.893z"
                  fill="#b2d0e8"/>
            <path d="M10.16 693.932L-.527 667.908l-3.653 1.5 10.689 26.024q38.055 96.315 121.03 157.481l-2.331 3.073 16.814 2.958-12.096-9.177Q48.928 788.317 10.16 693.932z"
                  fill="#b1cfe8"/>
            <path d="M252.106 802.934l32.001 24.032 2.484-3.307-32.001-24.033q-73.963-57.274-112.744-142.643l3.616-1.58-13.58-10.894 6.174 14.13q38.141 87.288 114.05 144.295z"
                  fill="#afcee7"/>
            <path d="M265.232 791.653l18.875 35.313 3.662-1.957-18.874-35.313q-12.028-24.271-19.785-50.219l3.822-1.016-11.802-12.84 3.967 14.923q7.105 26.731 20.135 51.11z"
                  fill="#afcee7"/>
            <path d="M191.11 897.458l-30.423-24.352-2.645 3.304 30.423 24.352q42.672 35.587 96.7 49.552l-1.074 3.845 17.18-3.737-14.966-4.184q-52.64-14.718-95.195-48.78z"
                  fill="#aecde7"/>
            <path d="M245.14 740.71l-9.635-36.253-4.149 1.102 9.637 36.253q6.414 27.366 20.373 51.714l-3.546 1.895 14.69 9.85-7.358-13.769q-12.95-24.227-20.011-50.793z"
                  fill="#adcde7"/>
            <path d="M289.067 866.89l-4.96-39.924-4.274.531 4.96 39.923q2.979 31.102 15.764 59.795l-3.722 1.537 13.67 11.265-5.966-14.446q-11.702-28.336-15.472-58.682z"
                  fill="#adcde6"/>
            <path d="M198.91 881.193l-38.223-8.087-.893 4.22 38.222 8.088q94.017 21.298 185.804-9.478l1.228 3.84 12.352-12.714-14.895 4.765q-90.715 29.018-183.596 9.366z"
                  fill="#adcde6"/>
            <path d="M382.41 871.857l28.55-9.133-1.34-4.188-28.549 9.133q-89.528 27.227-181.155 9.243l.843-3.981-17.15 5.025 15.397 3.257q92.784 19.632 183.405-9.356zM266.315 682.835l-30.81 21.622 2.527 3.6 30.81-21.621q29.924-19.863 50.991-49.183l3.245 2.459 2.755-17.661-9.506 12.545q-21.266 28.066-50.012 48.239zm-143.999-21.579l3.693-30.187-4.371-.535-3.693 30.188q-12.64 92.39 23.816 177.802l-3.769 1.544 13.813 11.357-5.97-14.57q-34.654-84.585-23.52-175.599z"
                  fill="#accce6"/>
            <path d="M316.305 634.625l18.026-23.79-3.531-2.674-18.026 23.789q-21.439 26.778-48.974 47.238l-2.346-3.344-8.023 16.033 12.914-9.063q28.716-20.152 49.96-48.189z"
                  fill="#abcce6"/>
            <path d="M324.296 638.95l10.035-28.114-4.175-1.49-10.035 28.113q-43.69 118.048-133.991 205.485l-2.808-2.968-5.611 17.03 11.464-10.841q92.319-87.306 135.12-207.216zm-19.822 286.465l12.094 29.284L320.68 953l-12.094-29.284q-10.548-27.804-15.084-57.209l4.062-.504-10.424-14.625 1.948 15.678q3.749 30.178 15.386 58.358z"
                  fill="#abcce6"/>
            <path d="M203.024 723.816l32.48-19.36-2.326-3.904-32.48 19.36q-35.79 20.165-75.963 28.823l-.774-4.064-14.007 11.506 15.632-2.977q41.357-7.878 77.438-29.384z"
                  fill="#aacbe6"/>
            <path d="M189.291 846.055l-28.604 27.05 3.139 3.32 28.604-27.05q94.24-87.09 136.114-208.74l3.907 1.394-2.85-17.941-5.359 15.011q-42.748 119.76-134.951 206.956zM381 858.967l29.96 3.757.57-4.548-29.959-3.757q-30.043-4.644-58.36-15.758l1.63-3.821-18.106 1.777 14.678 6.26q28.618 12.207 59.588 16.09z"
                  fill="#aacbe5"/>
            <path d="M285.895 946.123l30.673 8.576 1.236-4.421-30.673-8.576q-50.773-15.328-92.82-47.562l2.599-3.246-17.931-3.147 12.464 9.977q42.221 33.796 94.452 48.4z"
                  fill="#a9cbe5"/>
            <path d="M125.753 753.168l-31.1 5.924.878 4.61 31.1-5.924q42.4-7.073 78.65-29.844l2.152 3.61 9.26-15.875-13.815 8.234q-35.935 21.42-77.125 29.265z"
                  fill="#a8cae5"/>
            <path d="M145.689 836.497l14.998 36.609 4.383-1.796-14.999-36.609q-32.684-83.32-23.101-172.486l4.192.513-6.934-17.1-1.96 16.012q-11.087 90.63 23.42 174.857zm39.254 67.866l-24.256-31.257-3.743 2.905 24.255 31.257q73.466 97.056 185.621 145.409l-1.717 3.86 18.385-1.628-14.74-6.561Q258.64 999.336 184.943 904.363z"
                  fill="#a8cae5"/>
            <path d="M213.49 977.252l-20.381 23.568 3.636 3.144 20.38-23.567q44.095-49.22 60.632-112.83l4.098 1.145-4.366-18.053-4.362 15.615q-17.336 62.062-59.638 110.978z"
                  fill="#a7c9e5"/>
            <path d="M165.328 912.5l-4.64-39.394-4.796.565 4.641 39.393q2.844 31.708 16.046 60.88l-3.932 1.65 14.672 11.447-6.289-14.968q-12.066-28.72-15.702-59.574z"
                  fill="#a7c9e4"/>
            <path d="M321.715 843.007l-37.608-16.041-1.912 4.482 37.609 16.04q28.652 13.183 60.264 16.274l-.533 4.25 17.299-7.06-16.16-2.025q-30.643-3.843-58.959-15.92z"
                  fill="#a6c9e4"/>
            <path d="M273.104 866.356l11.003-39.39-4.703-1.314-11.003 39.39q-18.106 60.417-58.55 108.951l-3.244-2.805-3.722 18.327 10.66-12.327q42.246-48.852 59.56-110.832z"
                  fill="#a6c9e4"/>
            <path d="M368.587 1048.276l26.905 11.976 1.99-4.472-26.905-11.976Q262.713 994.226 188.92 901.5l3.392-2.632-17.26-7.253 10 12.887q73.59 94.833 183.536 143.773z"
                  fill="#a6c9e4"/>
            <path d="M136.454 841.563l24.233 31.543 3.908-3.002-24.233-31.543q-17.496-24.218-29.332-51.627l4.003-1.592-14.623-11.776 6.042 15.19q11.345 28.523 30.002 52.807zm-64.286 81.912l-28.893 9.534 1.544 4.68 28.894-9.533q31.064-9.33 57.055-28.378l2.45 3.544 8.195-16.894-13.447 9.295q-25.858 17.873-55.798 27.752z"
                  fill="#a5c8e4"/>
            <path d="M127.865 895.793l32.822-22.687-2.865-4.146L125 891.647q-25.61 16.62-54.295 27.004l-1.365-4.137-12.696 14.084 15.64-5.16q29.824-9.842 55.581-27.645z"
                  fill="#a4c8e4"/>
            <path d="M106.513 788.91l-11.86-29.818-4.721 1.878 11.86 29.819q10.804 29.503 30.53 53.737l-3.468 2.665 17.559 7.335-10.061-13.096q-18.555-24.15-29.839-52.52z"
                  fill="#a4c7e3"/>
            <path d="M121.8 776.759l-27.147-17.667-2.924 4.493 27.146 17.667q56.308 38.028 123.474 45.642l-.585 4.455 17.952-7.583-16.67-2.188q-65.603-8.608-121.246-44.82zm59.003 194.773l12.306 29.288 4.95-2.08-12.305-29.288q-10.678-27.65-15.023-56.999l4.466-.526-11.768-15.552 1.968 16.707q3.567 30.272 15.406 58.45z"
                  fill="#a0c5e2"/>
            <path d="M242.865 821.554l41.242 5.412.72-5.49-41.242-5.412q-63.822-9.57-118.611-43.847l2.49-3.828-19.756-.8 14.245 9.27q55.49 36.111 120.912 44.695z"
                  fill="#9ec4e2"/>
            <path d="M226.603 744.477l8.902-40.02-7.671-1.707-8.902 40.02q-11.998 49.095-40.204 91.03l-4.45-3.13-.11 23.272 10.988-15.62q30.087-42.77 41.447-93.845z"
                  fill="#82b4d9"/>
            <path d="M185.513 837.814l-24.826 35.292 7.075 4.976 24.826-35.291q31.687-43.233 42.324-95.83l5.571 1.24-9.733-22.367-4.282 19.249q-11.225 50.468-40.955 92.73z"
                  fill="#79aed5"/>
            <path d="M202.57 862.592l-41.883 10.514 2.117 8.432 41.883-10.514q23.072-4.974 43.748-16.305l2.579 5.108 11.134-21.772-17.632 8.903q-20.1 10.15-41.946 15.634z"
                  fill="#78aed5"/>
            <path d="M244.01 847.214l40.097-20.248-4.266-8.447-40.096 20.247q-18.94 8.68-38.93 14.51l-1.453-5.79-15.95 19.915 19.707-4.947q21.297-5.346 40.891-15.24z"
                  fill="#6fa8d2"/>
        </g>
        <g transform="matrix(.94 0 0 .94 -322.92 297.2)">
            <circle r="26.129" cx="644.745" cy="562.683" fill="#c4e8be" stroke="#67b976" stroke-width="3.393"/>
            <circle r="24.886" cx="513.657" cy="611.689" fill="#c5e8bf" stroke="#60b571" stroke-width="3.618"/>
            <circle r="23.261" cx="593.123" cy="432.561" fill="#c6e8c0" stroke="#7bc484" stroke-width="2.709"/>
            <circle r="16.871" cx="679.223" cy="698.352" fill="#c9eac3" stroke="#88ca8d" stroke-width="2.275"/>
            <circle r="16.545" cx="443.519" cy="490.591" fill="#caeac4" stroke="#87ca8d" stroke-width="2.286"/>
            <circle r="16.377" cx="744.994" cy="465.01" fill="#caeac4" stroke="#8dcd90" stroke-width="2.101"/>
            <circle r="15.874" cx="548.092" cy="747.339" fill="#caeac4" stroke="#8ccd90" stroke-width="2.123"/>
            <circle r="15.578" cx="476.823" cy="354.614" fill="#caeac4" stroke="#8acb8e" stroke-width="2.199"/>
            <circle r="15.121" cx="779.479" cy="600.663" fill="#caeac4" stroke="#90ce92" stroke-width="2.008"/>
            <circle r="14.953" cx="388.949" cy="675.314" fill="#caeac4" stroke="#93d095" stroke-width="1.891"/>
            <circle r="14.945" cx="698.089" cy="333.124" fill="#caeac4" stroke="#95d196" stroke-width="1.837"/>
            <circle r="13.956" cx="763.051" cy="810.464" fill="#cbeac5" stroke="#94d195" stroke-width="1.867"/>
            <circle r="13.754" cx="342.424" cy="393.742" fill="#cbeac5" stroke="#9ad49a" stroke-width="1.656"/>
            <circle r="13.741" cx="879.748" cy="502.969" fill="#cbeac5" stroke="#95d296" stroke-width="1.806"/>
            <circle r="12.613" cx="423.415" cy="810.994" fill="#cceac6" stroke="#9fd79d" stroke-width="1.477"/>
            <circle r="12.523" cx="579.226" cy="259.17" fill="#cceac6" stroke="#9ed69c" stroke-width="1.525"/>
            <circle r="12.462" cx="863.314" cy="712.772" fill="#cceac6" stroke="#a1d89f" stroke-width="1.412"/>
            <circle r="12.437" cx="318.795" cy="554.174" fill="#cceac6" stroke="#a3d9a0" stroke-width="1.332"/>
            <circle r="12.253" cx="835.763" cy="358.436" fill="#ccebc6" stroke="#a1d89f" stroke-width="1.394"/>
            <circle r="11.88" cx="631.912" cy="859.453" fill="#ccebc6" stroke="#a6daa2" stroke-width="1.247"/>
        </g>
    </g>
</svg>
